<?xml version="1.0" encoding="utf-8"?>
<!-- Generator: Adobe Illustrator 18.0.0, SVG Export Plug-In . SVG Version: 6.00 Build 0)  -->
<!DOCTYPE svg PUBLIC "-//W3C//DTD SVG 1.1//EN" "http://www.w3.org/Graphics/SVG/1.1/DTD/svg11.dtd">
<svg version="1.1" id="Layer_1" xmlns="http://www.w3.org/2000/svg" xmlns:xlink="http://www.w3.org/1999/xlink" x="0px" y="0px"
	 viewBox="0 0 256 256" enable-background="new 0 0 256 256" xml:space="preserve">
<g>
	<rect fill="#57B2CE" width="255" height="255" />
	<path fill="#106454" d="M173.5,189.8c-2.7,20.2-6.2,40.2-10.1,60.2c5-1.4,9.8-3.2,14.5-5.2c4.6-17.1,7.2-34.8,9.6-52.3
		c1.1-8.1,2.1-16.8-1.2-24.3c-1.1-2.5-2.6-4.7-4.4-6.7c-1.8-0.9-3.7-2-5.4-3.1c-1.8-1.1-6.3-3.6-9.5-4.8c2.8,4.1,5.2,8.4,6.5,13.3
		C175.4,174.2,174.5,182.1,173.5,189.8z"/>
	<path fill="#044C3F" d="M187.5,192.5c-2.4,17.5-5.1,35.3-9.6,52.3c23.3-10,43.1-26.7,56.7-47.8c-0.3-0.8-0.6-1.6-1-2.4
		c-5.1-10.7-15.4-17.5-25.8-22.2c-8.6-3.9-17.6-6.7-25.9-11c1.8,2,3.3,4.2,4.4,6.7C189.6,175.7,188.6,184.3,187.5,192.5z"/>
	<path fill="#106454" d="M83.6,191.3c1.3,13.1,7.5,25.2,13.6,36.8c4.6,8.7,9.2,17.5,14.5,25.8c5.3,0.7,10.8,1,16.3,1
		c0.7,0,1.5,0,2.2,0c-10.2-17.5-18.9-35.9-25.9-55c-4-10.9-7.5-22.3-6.8-33.9c0.2-3.5,0.8-6.9,1.8-10.3c-1.5,0.9-2.9,1.9-3.9,2.5
		c-1.8,1.1-3.7,2.2-5.6,3.2C84.8,170.6,82.6,181.1,83.6,191.3z"/>
	<path fill="#6B8EA8" d="M104.3,200c7,19,15.7,37.4,25.9,55c11.5-0.2,22.6-1.9,33.2-5c3.9-20,7.4-40,10.1-60.2
		c1-7.7,1.9-15.5-0.1-23c-1.3-4.8-3.6-9.2-6.5-13.3c-0.9-0.4-1.8-0.6-2.4-0.7c-2.3-0.4-0.2,2.2-2.4,2.8c-8.9,2.4-17.7,5.2-26.3,8.5
		c-8.6-3.2-17.4-6.1-26.3-8.5c-2.3-0.6-2.6-2.6-4.9-2.2c-1.5,0.2-3.5,1.3-5.5,2.5c-1,3.4-1.5,6.8-1.8,10.3
		C96.8,177.7,100.3,189.1,104.3,200z"/>
	<path fill="#044C3F" d="M111.7,254c-5.2-8.4-9.9-17.1-14.5-25.8c-6.1-11.7-12.3-23.7-13.6-36.8c-1-10.2,1.2-20.7,6.1-29.8
		c-8.3,4.2-17.3,7-25.8,10.9c-10.5,4.7-20.8,11.5-25.8,22.2c-2.7,5.7-3.7,12.1-4.4,18.5C53.5,235,80.9,250,111.7,254z"/>
	<path fill="#AE5A26" d="M119.3,34.9c0.5-0.4,0.8-0.9,1.2-1.4c-0.2-0.3-0.3-0.7-0.5-1.1C119.8,33.3,119.5,34.1,119.3,34.9z"/>
	
		<ellipse transform="matrix(0.9751 -0.2219 0.2219 0.9751 -19.5451 22.8838)" fill="#D3AA6F" cx="92.1" cy="98.4" rx="8.3" ry="14.3"/>
	
		<ellipse transform="matrix(-0.9751 -0.2219 0.2219 -0.9751 305.2732 231.1764)" fill="#D3AA6F" cx="165.6" cy="98.4" rx="8.3" ry="14.3"/>
	<path fill="#D3AA6F" d="M158.3,147.4c-0.7-0.7-1.4-1.5-1.9-2.4c-0.2-0.4-0.4-0.9-0.5-1.4c-1.2-2.2-1.8-4.7-1.9-7.2
		c-0.1-4.2,1-8.3,1.9-12.4c1-4.4,1.7-8.8,2.2-13.2c-8.2,2.7-17.1,1.3-25.7,2.1c-4.1,0.4-8.1,1.2-12.1,1.7
		c-6.1,0.8-12.2,0.8-18.3,0.7c3.2,6.5,4.6,14,3.9,21.2c-0.2,1.8-0.4,3.5-0.7,5.2c-0.6,4-1.4,8.1-3.6,11.5c-1.7,2-2.6,4.1-2.5,6.4
		c0.3,8.9,16.1,15.5,35.2,14.8c19.1-0.7,34.4-8.4,34.1-17.3c0-0.6-0.1-1.3-0.3-1.9C164.6,153,161.3,150.4,158.3,147.4z"/>
	<g>
		<g>
			<g>
				<path fill="#EEC98F" d="M91.6,96.3c1.9,29.8,20.2,52.8,40.8,51.5c20.6-1.3,35.8-26.5,33.8-56.3c-1.9-29.8-12.4-51.6-40.8-51.5
					C97.2,40.1,89.7,66.5,91.6,96.3z"/>
			</g>
			<g>
				<path fill="#EEC98F" d="M90.6,44.3c-0.7,3.1,0.8,6.2,2.2,9c0.5,1,1,1.9,1.5,2.9c1.5,3,3.1,6,5.7,8.2c2.6,2.1,6.4,3.1,9.3,1.4
					c0.7-3.7-1.6-7.2-3.7-10.2c-3-4.2-6.1-8.3-9.9-11.8c-1.1-1-2.8-2-4-1.2C91,42.9,90.7,43.6,90.6,44.3z"/>
			</g>
		</g>
	</g>
	<path fill="#221D1A" d="M104,60.4c-0.7-0.9,0.5-2.4,1.7-2.3c1.2,0.1,2.1,1,3,1.8c0.9,0.8,2,1.6,3.2,1.3c1.1-0.2,1.8-1.3,2.9-1.5
		c0.7-0.1,1.3,0.1,2,0.3c7.5,2.5,14.8,5.5,21.8,9.1c4.7,2.4,10,5,14.8,2.9c-5.7,0.6-11.3-1.8-16.2-4.6c-5-2.8-9.7-6.2-15.2-7.9
		c9.3,0.7,17.6,7.7,26.9,6.9c-7.3-1.4-15.4-3.2-19.6-9.3c3.2,2.7,7,4.6,11.1,5.6c4.5,1.1,9.7,1.4,12.5,5.1c-1.3-4.1-5.9-6-10.1-6.8
		c-2-0.4-4.4-0.9-5.2-2.8c3,1.6,6.5,2.1,9.7,3.4c5.2,2.1,9.4,6.2,11.7,11.3c1.2-2.5,0.3-5.6-1.4-7.7c-1.8-2.1-4.3-3.5-6.7-4.8
		c8.4,2.7,13,11.8,14,20.6c0.5,5.2,0.1,10.5-1.4,15.5c0.7,0.6,1.7-0.1,2.2-0.9c0.5-0.8,0.8-1.7,1.6-2.1c0.6-0.3,1.4-0.1,2-0.5
		c0.5-0.4,0.6-1.1,1-1.6c0.4-0.5,0.9-0.8,1.5-1.1c3-1.9,4.2-5.7,4.2-9.3c0-3.5-1.1-7-1.8-10.5c-1.3-7-0.7-14.3-2.7-21.1
		c-3.3-10.9-13.1-18.7-23.3-23.8c-4.6-2.3-9.5-4.2-14.6-4.9c-3.6-0.5-7.3-0.4-11-0.1c-3.7,0.3-7.5,0.8-11,2.2
		c-5.8,2.3-10.4,6.8-14.8,11.2c-1.8,1.8-3.7,3.7-4.8,6.1c-0.4,0.8-0.6,1.7-1,2.5c-0.7,1.5-1.9,2.7-2.8,4c-5.8,8-3.9,19-6.3,28.5
		c-0.8,3.1-2,6.1-2.4,9.3c-0.4,3.2,0.1,6.7,2.4,9c0.7,0.7,1.6,1.3,2,2.3c0.2,0.5,0.2,1.1,0.5,1.5c0.3,0.4,0.7,0.7,1.1,0.9
		c2,1,4.1,1.8,6.2,2.3c1.1,0.3,2.5,0.6,2.8,1.7c0.6-3.8,0.4-7.7-0.5-11.4c-0.2-0.6-0.3-1.3-0.1-2c0.3-0.7,0.9-1.1,1.4-1.7
		c1-1.3,0.6-3.1,0.3-4.7c-0.7-3.9-0.4-7.9,0.8-11.7c1.2-3.9,3.5-7.6,3-11.6c-0.7-5.6-6.4-9.6-7.2-15.3C94.1,50.2,98.4,56.2,104,60.4
		z"/>
</g>
</svg>
